# AST/ASF file generated using VICON BodyLanguage
# -----------------------------------------------
:version 1.10
:name VICON
:units
  mass 1.0
  length 0.45
  angle deg
:documentation
   .ast/.asf automatically generated from VICON data using
   VICON BodyBuilder and BodyLanguage model FoxedUp or BRILLIANT.MOD
:root
   order TX TY TZ RX RY RZ
   axis XYZ
   position 0 0 0  
   orientation 0 0 0 
:bonedata
  begin
     id 1 
     name lhipjoint
     direction 0.584852 -0.759097 0.285867 
     length 2.43633 
     axis 0 0 0  XYZ
  end
  begin
     id 2 
     name lfemur
     direction 0.34202 -0.939693 0  
     length 7.14704  
     axis 0 0 20  XYZ
    dof rx ry rz
    limits (-160.0 20.0)
           (-70.0 70.0)
           (-60.0 70.0)
  end
  begin
     id 3 
     name ltibia
     direction 0.342022 -0.939692 0   
     length 7.68483   
     axis 0 0 20   XYZ
    dof rx
    limits (-10.0 170.0)
  end
  begin
     id 4 
     name lfoot
     direction 0.0999605 -0.274639 0.956337   
     length 2.40452   
     axis -90 7.62852e-016 20   XYZ
    dof rx rz
    limits (-45.0 90.0)
           (-70.0 20.0)
  end
  begin
     id 5 
     name ltoes
     direction 1.53468e-011 -4.21881e-011 1   
     length 1.19837   
     axis -90 7.62852e-016 20   XYZ
    dof rx
    limits (-90.0 20.0)
  end
  begin
     id 6 
     name rhipjoint
     direction -0.569886 -0.769002 0.289597   
     length 2.40495  
     axis 0 0 0  XYZ 
  end
  begin
     id 7 
     name rfemur
     direction -0.34202 -0.939693 0   
     length 7.45086   
     axis 0 0 -20   XYZ
    dof rx ry rz
    limits (-160.0 20.0)
           (-70.0 70.0)
           (-70.0 60.0)
  end
  begin
     id 8 
     name rtibia
     direction -0.34202 -0.939693 0   
     length 7.76831   
     axis 0 0 -20   XYZ
    dof rx
    limits (-10.0 170.0)
 end
 begin
     id 9 
     name rfoot
     direction -0.0798572 -0.219406 0.97236   
     length 2.35911  
     axis -90 -7.62852e-016 -20   XYZ
    dof rx rz
    limits (-45.0 90.0)
           (-20.0 70.0)
  end
  begin
     id 10 
     name rtoes
     direction -1.53469e-011 -4.21728e-011 1   
     length 1.18261   
     axis -90 -7.62852e-016 -20   XYZ
    dof rx
    limits (-90.0 20.0)
  end
  begin
     id 11 
     name lowerback
     direction 0.0242088 0.999437 0.0232389   
     length 2.1561   
     axis 0 0 0   XYZ
    dof rx ry rz
    limits (-20.0 45.0)
           (-30.0 30.0)
           (-30.0 30.0)
  end
  begin
     id 12 
     name upperback
     direction -0.0356893 0.999013 -0.0264323   
     length 2.14431   
     axis 0 0 0   XYZ
    dof rx ry rz
    limits (-20.0 45.0)
           (-30.0 30.0)
           (-30.0 30.0)
  end
  begin
     id 13 
     name thorax
     direction -0.0472163 0.998194 -0.0371284   
     length 2.16169   
     axis 0 0 0   XYZ
    dof rx ry rz
    limits (-20.0 45.0)
           (-30.0 30.0)
           (-30.0 30.0)
  end
  begin
     id 14 
     name lowerneck
     direction 0.00863244 0.999921 0.00911972   
     length 1.58651   
     axis 0 0 0   XYZ
    dof rx ry rz
    limits (-20.0 45.0)
           (-30.0 30.0)
           (-30.0 30.0)
  end
  begin
     id 15 
     name upperneck
     direction 0.149523 0.979068 -0.138086   
     length 1.57486   
     axis 0 0 0   XYZ
    dof rx ry rz
    limits (-20.0 45.0)
           (-30.0 30.0)
           (-30.0 30.0)
  end
  begin
     id 16
     name head
     direction 0.0445219 0.997708 -0.0509576  
     length 1.6019  
     axis 0 0 0   XYZ
    dof rx ry rz
    limits (-20.0 45.0)
           (-30.0 30.0)
           (-30.0 30.0)
  end
  begin
     id 17 
     name lclavicle
     direction 0.911271 0.381667 -0.154644  
     length 3.80848  
     axis 0 0 0   XYZ
    dof ry rz
    limits (-20.0 10.0)
           (0.0 20.0)
  end
  begin
     id 18 
     name lhumerus
     direction 1 -4.49003e-011 2.1308e-027   
     length 5.19069   
     axis 180 -30 -90   XYZ
    dof rx ry rz
    limits (-60.0 90.0)
           (-90.0 90.0)
           (-90.0 90.0)
  end
  begin
     id 19
     name lradius
     direction 1 -4.48914e-011 4.01554e-027   
     length 3.30016   
     axis 180 -30 -90   XYZ
    dof rx
    limits (-10.0 170.0)
  end
  begin
     id 20
     name lwrist
     direction 1 -4.49003e-011 1.1934e-026   
     length 1.65008   
     axis -8.46377e-015 90 90   XYZ
    dof ry
    limits (-180.0 0.0)
 end
  begin
     id 21 
     name lhand
     direction 1 -4.49034e-011 2.38659e-026   
     length 0.707698   
     axis -1.52313e-014 90 90   XYZ
    dof rx rz
    limits (-90.0 90.0)
           (-45.0 45.0)
  end
  begin
     id 22 
     name lfingers
     direction 1 -4.48691e-011 4.77775e-026   
     length 0.570564   
     axis -3.04623e-014 90 90   XYZ
    dof rx
    limits (0.0 90.0)
  end
  begin
     id 23
     name lthumb
     direction 0.707107 -6.34832e-011 0.707107   
     length 0.819219   
     axis -90 45 -1.62303e-014   XYZ
    dof rx rz
    limits (-45.0 45.0)
           (-45.0 45.0)
  end
  begin
     id 24 
     name rclavicle
     direction -0.815579 0.573708 -0.0754329   
     length 3.54371  
     axis 0 0 0   XYZ 
    dof ry rz
    limits (-10.0 20.0)
           (-20.0 0.0)
  end
  begin
     id 25 
     name rhumerus
     direction -1 -4.48956e-011 3.05351e-028  
     length 5.23924   
     axis 180 30 90   XYZ
    dof rx ry rz
    limits (-90.0 60.0)
           (-90.0 90.0)
           (-90.0 90.0)
  end
  begin
     id 26 
     name rradius
     direction -1 -4.49013e-011 3.53849e-027   
     length 3.32953   
     axis 180 30 90   XYZ
    dof rx
    limits (-10.0 170.0)
  end
  begin
     id 27 
     name rwrist
     direction -1 -4.48901e-011 1.19374e-026   
     length 1.66477   
     axis -8.46377e-015 -90 -90   XYZ
    dof ry
    limits (-180.0 0.0)
  end
  begin
     id 28
     name rhand
     direction -1 -4.48877e-011 2.38764e-026   
     length 0.607414   
     axis -1.52313e-014 -90 -90   XYZ
    dof rx rz
    limits (-90.0 90.0)
           (-45.0 45.0)
  end
  begin
     id 29
     name rfingers
     direction -1 -4.48882e-011 4.77521e-026   
     length 0.489712   
     axis -3.04623e-014 -90 -90   XYZ
    dof rx
    limits (0.0 90.0)
  end
  begin
     id 30
     name rthumb
     direction -0.707107 -6.34974e-011 0.707107   
     length 0.703132   
     axis -90 -45 1.62303e-014   XYZ
    dof rx rz
    limits (-45.0 45.0)
           (-45.0 45.0)
  end
:hierarchy
  begin
    root lhipjoint rhipjoint lowerback
    lhipjoint lfemur
    lfemur ltibia
    ltibia lfoot
    lfoot ltoes
    rhipjoint rfemur
    rfemur rtibia
    rtibia rfoot
    rfoot rtoes
    lowerback upperback
    upperback thorax
    thorax lowerneck lclavicle rclavicle
    lowerneck upperneck
    upperneck head
    lclavicle lhumerus
    lhumerus lradius
    lradius lwrist
    lwrist lhand lthumb
    lhand lfingers
    rclavicle rhumerus
    rhumerus rradius
    rradius rwrist
    rwrist rhand rthumb
    rhand rfingers
  end

#!OML:ASF E:\VariousWalksJay\Project 1\Capture day 1\Session 1\Actor2.ASF
:FULLY-SPECIFIED
:DEGREES
35
root 7.24693 16.9959 9.97485 16.1214 -48.5882 -15.7939
lowerback -7.51059 -0.72371 10.6049
upperback 1.46274 -2.15531 2.38277
thorax 5.49909 -0.77565 -3.69351
lowerneck -7.58349 -6.73013 -8.04203
upperneck 4.18239 -9.21962 13.814
head 3.52675 -4.23994 4.98019
rclavicle -9.64851e-014 1.59028e-014
rhumerus -33.5699 17.6685 -80.9917
rradius 22.0199
rwrist 13.0854
rhand 3.90184 -6.63801
rfingers 7.12502
rthumb 29.322 -34.3459
lclavicle -9.64851e-014 1.59028e-014
lhumerus -33.751 -17.9469 82.0648
lradius 32.3375
lwrist 4.49022
lhand 3.96939 -6.66604
lfingers 7.12502
lthumb 29.3865 21.0306
rfemur -14.3792 -6.00062 32.1346
rtibia 37.1478
rfoot -25.5209 -8.03303
rtoes 0.34886
lfemur -15.1715 4.98077 -9.77813
ltibia 39.9121
lfoot -27.6698 8.29326
ltoes -8.33591
36
root 7.25088 16.9957 9.97902 16.0997 -48.6148 -15.7846
lowerback -7.51302 -0.731648 10.6014
upperback 1.47101 -2.16534 2.3659
thorax 5.5073 -0.779597 -3.71064
lowerneck -7.62047 -6.71543 -8.04003
upperneck 4.19963 -9.19625 13.7784
head 3.53344 -4.22766 4.96948
rclavicle 2.51587e-014 -4.35338e-014
rhumerus -33.5586 17.7256 -81.0366
rradius 22.0763
rwrist 13.0277
rhand 3.7938 -6.65102
rfingers 7.12502
rthumb 29.2188 -34.3769
lclavicle 2.51587e-014 -4.35338e-014
lhumerus -33.7949 -17.9923 82.1627
lradius 32.3765
lwrist 4.34302
lhand 3.95612 -6.68384
lfingers 7.12502
lthumb 29.3738 21.015
rfemur -14.3675 -5.9363 32.1027
rtibia 37.1609
rfoot -25.5223 -8.09637
rtoes 0.273757
lfemur -15.1486 4.96487 -9.81975
ltibia 39.9139
lfoot -27.6842 8.33807
ltoes -8.33569
37
root 7.25462 16.9955 9.98321 16.0807 -48.6331 -15.7775
lowerback -7.51891 -0.739485 10.6009
upperback 1.47768 -2.17594 2.35009
thorax 5.51567 -0.783798 -3.72843
lowerneck -7.66977 -6.7043 -8.03438
upperneck 4.23773 -9.17958 13.7415
head 3.54891 -4.21767 4.9567
rclavicle 3.77691e-014 2.38542e-015
rhumerus -33.56 17.7814 -81.0765
rradius 22.1355
rwrist 12.9523
rhand 3.68858 -6.65795
rfingers 7.12502
rthumb 29.1183 -34.4013
lclavicle 3.77691e-014 2.38542e-015
lhumerus -33.8434 -18.0535 82.2616
lradius 32.4042
lwrist 4.17083
lhand 3.95437 -6.71065
lfingers 7.12502
lthumb 29.3721 20.9885
rfemur -14.3558 -5.88169 32.074
rtibia 37.1719
rfoot -25.5247 -8.1482
rtoes 0.220521
lfemur -15.1299 4.95287 -9.85609
ltibia 39.9173
lfoot -27.6953 8.37347
ltoes -8.33452
38
root 7.25822 16.9954 9.98746 16.0634 -48.645 -15.775
lowerback -7.5249 -0.746171 10.6048
upperback 1.48361 -2.18548 2.33549
thorax 5.52337 -0.787425 -3.74727
lowerneck -7.72586 -6.69747 -8.03418
upperneck 4.29238 -9.17032 13.7126
head 3.57194 -4.2105 4.94636
rclavicle -2.81653e-014 1.39149e-015
rhumerus -33.572 17.8339 -81.1096
rradius 22.1959
rwrist 12.8651
rhand 3.5931 -6.65711
rfingers 7.12502
rthumb 29.0272 -34.4162
lclavicle -2.81653e-014 1.39149e-015
lhumerus -33.8924 -18.124 82.3589
lradius 32.4195
lwrist 3.98362
lhand 3.96334 -6.74157
lfingers 7.12502
lthumb 29.3807 20.9561
rfemur -14.3409 -5.83758 32.0493
rtibia 37.1799
rfoot -25.5261 -8.19207
rtoes 0.174813
lfemur -15.1117 4.94544 -9.88614
ltibia 39.923
lfoot -27.7054 8.39994
ltoes -8.3365
39
root 7.26175 16.9951 9.99161 16.0519 -48.6513 -15.7844
lowerback -7.52678 -0.750806 10.618
upperback 1.48857 -2.19273 2.32308
thorax 5.52786 -0.789883 -3.76857
lowerneck -7.78441 -6.69471 -8.0442
upperneck 4.3594 -9.16823 13.7
head 3.60122 -4.20609 4.94201
rclavicle 5.61567e-014 2.80286e-014
rhumerus -33.5952 17.8805 -81.1358
rradius 22.2577
rwrist 12.7758
rhand 3.51255 -6.64557
rfingers 7.12502
rthumb 28.9502 -34.4179
lclavicle 5.61567e-014 2.80286e-014
lhumerus -33.9426 -18.2032 82.4534
lradius 32.4256
lwrist 3.79589
lhand 3.99042 -6.77419
lfingers 7.12502
lthumb 29.4065 20.9189
rfemur -14.3213 -5.80133 32.0339
rtibia 37.1845
rfoot -25.5267 -8.22899
rtoes 0.140884
lfemur -15.0935 4.94541 -9.9038
ltibia 39.9322
lfoot -27.714 8.41526
ltoes -8.33986
40
root 7.26524 16.9947 9.99571 16.0431 -48.6554 -15.8023
lowerback -7.52363 -0.753739 10.6362
upperback 1.49272 -2.19766 2.31339
thorax 5.52891 -0.791309 -3.78936
lowerneck -7.83955 -6.69505 -8.06393
upperneck 4.43349 -9.17138 13.6998
head 3.63372 -4.20396 4.94268
rclavicle 4.93234e-015 1.53064e-014
rhumerus -33.6231 17.9145 -81.1511
rradius 22.3135
rwrist 12.7007
rhand 3.4441 -6.62478
rfingers 7.12502
rthumb 28.8848 -34.4083
lclavicle 4.93234e-015 1.53064e-014
lhumerus -33.9941 -18.2886 82.545
lradius 32.4238
lwrist 3.62038
lhand 4.02501 -6.80461
lfingers 7.12502
lthumb 29.4396 20.8827
rfemur -14.2967 -5.77116 32.0249
rtibia 37.1866
rfoot -25.5239 -8.26491
rtoes 0.0870429
lfemur -15.0727 4.94704 -9.91317
ltibia 39.9443
lfoot -27.7243 8.42436
ltoes -8.33487
41
root 7.2687 16.9942 9.99964 16.0379 -48.6587 -15.8296
lowerback -7.51354 -0.754037 10.6592
upperback 1.49637 -2.19869 2.30545
thorax 5.52596 -0.790935 -3.81035
lowerneck -7.89257 -6.69799 -8.08658
upperneck 4.51222 -9.17927 13.7089
head 3.66843 -4.20389 4.94637
rclavicle 4.77704e-014 2.20651e-014
rhumerus -33.6569 17.9364 -81.1586
rradius 22.3656
rwrist 12.6431
rhand 3.39039 -6.60029
rfingers 7.12502
rthumb 28.8335 -34.3926
lclavicle 4.77704e-014 2.20651e-014
lhumerus -34.0449 -18.383 82.6317
lradius 32.4149
lwrist 3.46978
lhand 4.07518 -6.83006
lfingers 7.12502
lthumb 29.4875 20.8488
rfemur -14.2679 -5.7405 32.0234
rtibia 37.1869
rfoot -25.5212 -8.30153
rtoes 0.0400594
lfemur -15.0498 4.957 -9.91293
ltibia 39.9588
lfoot -27.7342 8.423
ltoes -8.32739
